<?xml version="1.0"?>
<svg xmlns="http://www.w3.org/2000/svg" version="1.1"
    width="100px" height="100px" viewPort="0 0 100 100">
    <defs>
        <linearGradient id="base-color" gradientTransform="rotate(90)">
            <stop offset="0.2" stop-color="#ffffff"/>
            <stop offset="0.8" stop-color="#cccccc"/>
        </linearGradient>
        <filter id="base-filter" filterUnits="userSpaceOnUse" x="0" y="0" width="200" height="200">
            <feGaussianBlur stdDeviation="2"/>
        </filter>
        <clipPath id="base-clip" viewBox="0 0 100 100">
            <polygon points="10,10 10,40 20,40 20,20 40,20 40,10"/>
            <polygon points="90,10 60,10 60,20 80,20 80,40 90,40"/>
            <polygon points="90,90 90,60 80,60 80,80 60,80 60,90"/>
            <polygon points="10,90 40,90 40,80 20,80 20,60 10,60"/>
        </clipPath>
    </defs>
    <g fill="rgb(0,0,0)" stroke="rgb(0,0,0)" stroke-width="5" filter="url(#base-filter)">
        <polygon points="10,10 10,40 20,40 20,20 40,20 40,10"/>
        <polygon points="90,10 60,10 60,20 80,20 80,40 90,40"/>
        <polygon points="90,90 90,60 80,60 80,80 60,80 60,90"/>
        <polygon points="10,90 40,90 40,80 20,80 20,60 10,60"/>
    </g>
    <g fill="url(#base-color)" clip-path="url(#base-clip)">
        <rect x="0" y="0" width="100" height="100"/>
    </g>
</svg>
